{"asset":{"generator":"3D Builder","version":"2.0"},"scene":0,"scenes":[{"nodes":[0]}],"nodes":[{"mesh":0,"matrix":[1,0,0,0,0,0.99999988079071045,-4.7683710135970614E-7,0,0,3.1332962180385948E-7,0.99999970197677612,0,-1648.3330078125,-321.8359375,-0.32669785618782043,1]}],"meshes":[{"primitives":[{"attributes":{"POSITION":0},"mode":4,"indices":1,"material":0}]}],"materials":[{"name":"Default","pbrMetallicRoughness":{"baseColorFactor":[0.50288659334182739,0.50288659334182739,0.50288659334182739,1],"metallicFactor":0,"roughnessFactor":1},"alphaMode":"OPAQUE"}],"accessors":[{"bufferView":0,"byteOffset":0,"count":20911,"componentType":5126,"type":"VEC3","min":[240.51600646972656,-25.169900894165039,-1456.8800048828125],"max":[3059.449951171875,668.84197998046875,1456.8900146484375]},{"bufferView":1,"byteOffset":0,"count":104052,"componentType":5125,"type":"SCALAR"}],"bufferViews":[{"buffer":0,"byteOffset":0,"byteLength":250932,"byteStride":12,"target":34962},{"buffer":0,"byteOffset":250932,"byteLength":416208,"target":34963}],"buffers":[{"byteLength":667140,"uri":"McFarland Bridge.bin"}]}