{"asset":{"generator":"3D Builder","version":"2.0"},"scene":0,"scenes":[{"nodes":[0]}],"nodes":[{"mesh":0,"matrix":[1,0,0,0,0,0.9999997615814209,-2.9802316703353426E-7,0,0,8.551596124561911E-7,0.9999997615814209,0,3.9950127601623535,-14.66973876953125,-10.435589790344238,1]}],"meshes":[{"primitives":[{"attributes":{"POSITION":0,"TEXCOORD_0":2},"mode":4,"indices":3,"material":0},{"attributes":{"POSITION":1},"mode":4,"indices":4,"material":1}]}],"materials":[{"pbrMetallicRoughness":{"baseColorFactor":[1,1,1,1],"metallicFactor":0,"roughnessFactor":1,"baseColorTexture":{"index":0,"texCoord":0}},"alphaMode":"OPAQUE"},{"name":"FrontColor","pbrMetallicRoughness":{"baseColorFactor":[0.49102127552032471,0.45641061663627625,0.41254293918609619,1],"metallicFactor":0,"roughnessFactor":1},"alphaMode":"OPAQUE"}],"textures":[{"source":0,"sampler":0}],"images":[{"uri":"OobTerrain.png"}],"samplers":[{"magFilter":9729,"wrapS":10497,"wrapT":10497}],"accessors":[{"bufferView":0,"byteOffset":0,"count":10201,"componentType":5126,"type":"VEC3","min":[-641.375,-11.097200393676758,-637.94500732421875],"max":[641.39300537109375,21.122900009155273,637.8590087890625]},{"bufferView":0,"byteOffset":122412,"count":3092,"componentType":5126,"type":"VEC3","min":[-669.9530029296875,-9.969670295715332,-643.11102294921875],"max":[661.95501708984375,40.437099456787109,663.9530029296875]},{"bufferView":1,"byteOffset":0,"count":10201,"componentType":5126,"type":"VEC2"},{"bufferView":2,"byteOffset":0,"count":60000,"componentType":5125,"type":"SCALAR"},{"bufferView":2,"byteOffset":240000,"count":15444,"componentType":5125,"type":"SCALAR"}],"bufferViews":[{"buffer":0,"byteOffset":0,"byteLength":159516,"byteStride":12,"target":34962},{"buffer":0,"byteOffset":159516,"byteLength":81608,"byteStride":8,"target":34962},{"buffer":0,"byteOffset":241124,"byteLength":301776,"target":34963}],"buffers":[{"byteLength":542900,"uri":"BridgeTerrainBuildings.bin"}]}