<?xml version="1.0" standalone="no"?>
<!DOCTYPE svg PUBLIC "-//W3C//DTD SVG 20010904//EN"
 "http://www.w3.org/TR/2001/REC-SVG-20010904/DTD/svg10.dtd">
<svg version="1.0" xmlns="http://www.w3.org/2000/svg"
 width="1607.000000pt" height="1607.000000pt" viewBox="0 0 1607.000000 1607.000000"
 preserveAspectRatio="xMidYMid meet">
<metadata>
Created by potrace 1.14, written by Peter Selinger 2001-2017
</metadata>
<g transform="translate(0.000000,1607.000000) scale(0.100000,-0.100000)"
fill="#000000" stroke="none">
<path d="M8016 16053 c-11 -3 -188 -102 -395 -220 -662 -380 -1005 -575 -1051
-601 -25 -14 -57 -33 -72 -43 -14 -11 -28 -19 -31 -19 -3 0 -45 -23 -94 -51
-48 -29 -108 -63 -133 -77 -65 -36 -90 -61 -116 -117 l-24 -50 0 -1050 0
-1050 24 -50 c32 -69 48 -81 256 -197 25 -14 401 -229 835 -478 736 -421 794
-452 847 -457 36 -4 69 -1 90 8 18 7 184 99 368 204 184 106 355 203 380 217
405 228 1072 616 1093 636 16 15 38 45 49 67 20 39 21 52 21 1095 0 1036 -1
1057 -20 1100 -11 25 -33 57 -49 72 -16 14 -137 88 -269 162 -132 75 -247 141
-255 146 -14 8 -937 536 -1010 578 -19 11 -89 51 -155 88 -66 38 -133 75 -148
82 -27 12 -103 15 -141 5z m193 -284 c58 -34 120 -69 136 -79 17 -9 233 -134
480 -277 248 -143 493 -285 545 -315 52 -31 140 -81 195 -113 55 -31 111 -64
124 -72 l23 -15 -23 -12 c-13 -7 -40 -22 -59 -33 -69 -40 -157 -91 -320 -185
-91 -52 -199 -115 -240 -140 -41 -24 -82 -47 -90 -51 -8 -4 -24 -13 -35 -20
-11 -7 -66 -39 -123 -72 -57 -33 -118 -68 -135 -79 -18 -10 -122 -70 -232
-134 -203 -117 -225 -129 -305 -176 -56 -32 -83 -32 -140 0 -25 14 -65 37 -90
51 -25 14 -144 83 -265 153 -175 101 -816 472 -1045 604 -25 14 -71 40 -102
58 -32 18 -58 35 -58 38 0 3 49 33 108 66 59 34 195 112 302 174 107 62 209
121 225 130 17 9 107 61 200 115 94 54 190 109 215 123 50 28 228 130 425 245
72 42 141 76 154 77 13 0 72 -28 130 -61z m-1754 -1130 c9 -6 76 -45 400 -231
72 -41 292 -168 490 -283 377 -218 402 -232 463 -266 20 -11 40 -24 44 -28 4
-3 -47 -38 -114 -76 -67 -39 -144 -83 -173 -100 -28 -16 -118 -68 -199 -115
-81 -47 -161 -93 -179 -104 -458 -266 -713 -413 -760 -439 -26 -15 -59 -34
-72 -43 l-25 -16 0 887 0 886 58 -32 c31 -18 62 -35 67 -40z m3382 -809 c0
-484 -2 -880 -4 -880 -5 0 -114 60 -128 70 -5 4 -116 68 -245 142 -129 74
-307 177 -395 228 -88 51 -176 102 -195 113 -19 11 -109 62 -200 115 -91 52
-208 120 -260 150 -52 29 -97 55 -98 57 -2 2 13 13 35 25 48 26 88 49 243 140
69 40 134 78 145 84 33 19 244 140 263 151 9 6 60 35 112 65 52 30 104 60 115
67 11 7 27 16 35 20 8 4 49 27 90 51 41 25 95 56 120 70 25 13 86 48 135 77
202 118 230 134 231 135 0 0 1 -396 1 -880z m-1684 -168 c17 -10 43 -25 57
-33 14 -9 149 -87 300 -174 151 -87 295 -170 320 -185 25 -15 207 -121 405
-235 198 -115 388 -225 423 -245 l62 -37 -327 -189 c-180 -104 -337 -194 -348
-200 -19 -10 -305 -175 -335 -193 -8 -5 -73 -43 -145 -84 -71 -41 -201 -116
-288 -166 -86 -50 -167 -93 -180 -96 -21 -5 -41 5 -312 160 -22 13 -122 71
-223 129 -101 58 -185 106 -188 106 -2 0 -34 19 -71 42 -38 22 -88 52 -113 66
-25 14 -119 68 -210 120 -91 52 -178 103 -195 112 -16 10 -53 31 -81 47 -27
17 -70 41 -95 55 -126 71 -160 91 -157 93 2 2 19 12 38 22 28 16 620 358 1035
598 50 29 182 105 295 170 113 65 209 121 215 126 16 15 83 10 118 -9z"/>
<path d="M5727 14834 c-1 -1 -47 -5 -102 -8 -55 -4 -125 -9 -155 -11 -30 -2
-89 -7 -130 -10 -41 -3 -104 -8 -140 -10 -36 -3 -85 -7 -110 -10 -62 -6 -197
-17 -245 -20 -22 -2 -67 -6 -100 -9 -33 -4 -85 -9 -115 -12 -30 -2 -71 -6 -90
-9 -19 -2 -64 -7 -100 -10 -36 -3 -76 -8 -90 -10 -14 -3 -54 -7 -90 -10 -36
-3 -76 -8 -90 -10 -14 -2 -54 -7 -90 -10 -36 -3 -76 -8 -90 -10 -14 -3 -43 -7
-65 -10 -22 -3 -78 -10 -125 -15 -47 -6 -96 -13 -110 -15 -14 -2 -45 -6 -70
-10 -50 -6 -117 -16 -141 -20 -9 -2 -40 -6 -70 -10 -30 -4 -91 -13 -137 -21
-45 -8 -99 -17 -120 -20 -89 -13 -616 -111 -644 -120 -17 -5 -41 -10 -91 -19
-15 -3 -53 -12 -85 -20 -31 -9 -69 -18 -84 -20 -15 -3 -97 -23 -181 -45 -923
-238 -1453 -548 -1523 -892 -4 -18 -8 -1581 -9 -3473 l-1 -3440 24 -65 c13
-36 31 -81 40 -100 73 -159 258 -315 539 -454 73 -36 135 -66 138 -66 3 0 24
-8 48 -19 198 -88 592 -211 942 -295 221 -52 316 -74 350 -80 17 -3 41 -8 55
-11 14 -3 48 -10 75 -15 28 -6 61 -12 75 -15 55 -11 237 -45 268 -50 17 -3 44
-7 60 -10 165 -28 222 -37 247 -41 17 -2 55 -9 85 -14 30 -5 75 -11 100 -14
25 -4 54 -8 65 -10 11 -2 43 -7 70 -10 62 -9 260 -35 300 -41 29 -4 161 -20
240 -30 124 -16 177 -20 241 -20 61 0 76 4 110 27 21 15 48 44 59 64 19 36 20
59 20 1186 0 1013 2 1148 15 1149 8 0 26 2 40 4 34 4 140 14 220 21 36 3 85 7
110 9 151 13 404 31 560 40 205 12 243 15 248 19 2 3 20 49 38 102 74 212 176
377 329 531 177 177 372 285 684 379 10 3 6 13 -13 39 -94 122 -192 303 -217
400 -4 17 -14 55 -23 85 -26 94 -28 111 -31 260 -12 540 271 1016 765 1287 53
29 222 100 258 108 9 2 54 13 99 24 138 34 307 44 442 26 91 -12 117 -17 210
-41 423 -110 801 -432 958 -815 27 -67 78 -238 87 -292 3 -18 8 -43 12 -57 13
-53 12 -335 -1 -410 -32 -176 -102 -339 -216 -508 -59 -88 -67 -103 -52 -109
239 -85 422 -202 599 -381 155 -157 322 -415 374 -577 7 -22 15 -43 19 -47 6
-7 67 -13 241 -23 52 -3 124 -8 160 -10 36 -3 101 -7 145 -10 170 -12 314 -23
375 -30 25 -2 78 -7 118 -11 98 -8 131 -12 141 -18 5 -3 9 -520 9 -1150 l0
-1144 23 -39 c38 -67 79 -88 168 -88 42 0 104 4 138 8 35 4 80 10 100 12 294
36 418 53 698 95 110 16 209 32 220 34 11 2 40 7 65 10 25 3 56 8 70 11 14 3
41 8 60 11 19 3 58 10 85 15 93 17 210 38 240 44 17 3 41 8 55 11 14 2 36 7
50 10 14 3 36 8 50 11 21 3 223 47 270 58 8 2 38 9 65 15 28 6 57 13 66 15 10
2 79 20 155 40 77 21 144 38 149 39 6 2 44 13 85 25 663 197 1070 415 1237
661 16 25 46 85 65 134 l35 89 -1 3461 -2 3461 -23 60 c-56 140 -163 260 -338
375 -352 233 -915 423 -1758 596 -28 6 -295 55 -325 60 -14 3 -61 11 -105 19
-87 15 -140 24 -195 31 -19 2 -60 9 -90 14 -30 5 -75 12 -100 15 -25 3 -56 8
-70 10 -14 2 -45 7 -70 10 -25 4 -56 8 -70 10 -14 2 -50 6 -80 10 -30 4 -66 8
-80 10 -30 5 -99 14 -160 21 -25 2 -79 9 -120 14 -41 5 -100 12 -130 15 -30 4
-66 8 -80 10 -14 2 -59 6 -100 10 -41 4 -86 8 -100 10 -14 2 -56 6 -95 10 -38
3 -88 8 -110 10 -22 3 -71 7 -110 10 -38 3 -88 8 -110 10 -22 2 -76 7 -120 10
-44 3 -96 8 -115 10 -19 2 -82 7 -140 10 -58 4 -121 9 -140 10 -19 2 -82 7
-140 10 -58 3 -122 7 -142 9 l-38 3 -1 -1036 c0 -570 -2 -1043 -4 -1052 -22
-116 -82 -212 -172 -279 -52 -39 -221 -138 -432 -256 -31 -17 -144 -82 -251
-144 -107 -62 -215 -124 -240 -138 -25 -13 -70 -39 -100 -57 -100 -59 -734
-422 -790 -452 -95 -52 -231 -65 -340 -33 -19 5 -134 66 -255 136 -121 69
-245 139 -275 156 -30 17 -107 61 -170 98 -63 37 -135 78 -160 92 -25 13 -61
34 -80 45 -19 11 -98 56 -175 100 -77 44 -264 151 -415 238 -151 87 -291 167
-310 177 -111 60 -203 197 -218 323 -3 28 -6 508 -6 1068 l-1 1018 -78 -3
c-43 -2 -79 -4 -80 -4z m-4594 -2145 c229 -113 538 -222 888 -315 114 -30 215
-56 225 -59 11 -2 80 -17 154 -34 74 -16 146 -32 160 -35 14 -2 93 -18 175
-34 83 -17 170 -34 195 -38 25 -4 47 -8 50 -9 26 -5 82 -15 110 -20 19 -3 60
-10 90 -15 30 -5 73 -12 95 -15 23 -3 50 -7 60 -9 11 -2 42 -7 68 -10 27 -4
56 -9 65 -11 10 -1 40 -6 67 -9 28 -4 64 -9 80 -11 187 -26 247 -35 290 -40
28 -3 61 -8 75 -10 14 -2 52 -6 85 -10 33 -3 71 -8 85 -10 23 -4 128 -16 158
-18 6 0 12 -7 13 -16 0 -9 1 -1456 1 -3216 l1 -3200 -34 1 c-41 0 -135 10
-233 25 -39 5 -87 12 -106 15 -70 10 -176 24 -215 30 -22 3 -51 7 -65 9 -23 4
-104 16 -190 30 -19 3 -48 7 -65 9 -16 2 -41 7 -55 10 -14 3 -41 8 -60 11 -19
2 -48 7 -65 10 -54 10 -190 34 -215 39 -14 2 -70 13 -125 25 -55 11 -111 22
-125 25 -99 18 -240 50 -345 76 -22 6 -49 12 -60 14 -100 19 -490 131 -680
196 -335 114 -571 231 -691 342 -55 51 -72 82 -85 156 -7 37 -10 1139 -10
3147 0 1700 0 3093 0 3097 1 4 31 -11 68 -33 37 -23 112 -63 166 -90z m14039
-2966 c0 -2260 -3 -3107 -12 -3157 -6 -38 -19 -81 -30 -95 -115 -160 -486
-335 -1060 -501 -122 -35 -316 -86 -363 -96 -10 -2 -27 -6 -37 -9 -19 -6 -44
-12 -90 -21 -14 -3 -54 -12 -90 -20 -61 -14 -425 -89 -480 -99 -137 -24 -211
-37 -240 -41 -19 -3 -100 -16 -180 -29 -80 -13 -165 -27 -190 -30 -25 -3 -90
-13 -145 -21 -94 -14 -122 -18 -220 -29 -22 -3 -53 -7 -70 -10 -40 -6 -88 -12
-157 -20 l-58 -7 0 3221 0 3221 33 1 c17 0 41 2 52 3 11 2 47 6 80 10 61 7
346 43 400 50 17 3 48 7 70 10 22 3 87 13 145 21 58 9 121 18 140 20 19 3 60
10 90 15 30 5 72 11 93 14 55 9 107 17 131 22 11 2 48 9 81 14 33 5 71 12 85
15 14 3 39 7 55 10 17 3 44 8 60 11 17 3 50 10 75 14 25 5 56 11 69 14 14 3
70 15 125 26 56 12 119 26 141 32 22 5 51 12 65 15 34 5 285 69 395 99 204 57
502 157 625 211 134 58 263 123 345 173 33 20 62 35 64 34 2 -2 3 -1393 3
-3091z"/>
<path d="M7870 10621 c-410 -82 -746 -372 -874 -753 -14 -42 -26 -82 -26 -90
0 -11 193 -13 1095 -13 1031 0 1095 1 1095 17 0 31 -51 170 -90 249 -149 295
-470 531 -810 594 -82 15 -305 13 -390 -4z"/>
<path d="M6973 9422 c-32 -3 -32 -4 -27 -45 8 -59 51 -199 82 -266 53 -113
154 -252 265 -366 86 -87 100 -151 48 -223 -31 -42 -64 -58 -138 -67 -23 -3
-73 -12 -110 -21 -480 -109 -763 -348 -908 -769 -40 -116 -90 -162 -166 -152
-36 5 -37 4 -44 -32 -4 -20 -9 -45 -10 -56 -2 -11 -5 -38 -8 -60 -17 -116 -20
-223 -18 -555 5 -637 3 -1575 -2 -1875 -6 -337 5 -445 67 -607 120 -320 357
-542 725 -679 91 -34 137 -80 144 -144 4 -27 4 -693 1 -1480 -5 -1766 -5
-1625 2 -1647 5 -16 -1 -18 -48 -19 -29 0 -911 -1 -1959 -2 l-1905 -2 -37 -25
c-67 -46 -96 -139 -67 -215 14 -38 65 -83 107 -95 27 -8 1483 -10 5094 -8
l5056 3 37 29 c96 73 92 218 -7 284 l-41 27 -1960 0 -1961 0 0 1585 c0 1837
-15 1629 119 1681 260 100 386 175 516 308 90 91 155 182 208 293 33 70 75
204 86 273 4 22 11 67 17 100 12 67 17 2710 5 2780 -3 22 -9 54 -12 70 -3 17
-6 39 -8 50 -2 16 -9 19 -43 17 -52 -4 -105 18 -129 54 -11 16 -35 65 -54 109
-68 162 -198 345 -336 474 -179 167 -410 281 -639 316 -100 15 -156 72 -151
154 5 61 4 61 105 167 97 103 169 201 217 297 37 72 72 161 79 199 3 13 10 47
16 76 6 30 9 56 6 58 -5 5 -2162 11 -2214 6z"/>
</g>
</svg>
