{"asset":{"generator":"3D Builder","version":"2.0"},"scene":0,"scenes":[{"nodes":[0]}],"nodes":[{"mesh":0,"matrix":[-0.87031853199005127,-0.492488294839859,1.1086322615483368E-7,0,-0.048575833439826965,0.0858420580625534,-0.995122492313385,0,0.49008697271347046,-0.86607259511947632,-0.098632946610450745,0,0.69869309663772583,0.94594293832778931,0.39984157681465149,1]}],"meshes":[{"primitives":[{"attributes":{"POSITION":0,"TEXCOORD_0":4},"mode":4,"indices":8,"material":0},{"attributes":{"POSITION":1,"TEXCOORD_0":5},"mode":4,"indices":9,"material":1},{"attributes":{"POSITION":2,"TEXCOORD_0":6},"mode":4,"indices":10,"material":2},{"attributes":{"POSITION":3,"TEXCOORD_0":7},"mode":4,"indices":11,"material":3}]}],"materials":[{"pbrMetallicRoughness":{"baseColorFactor":[1,1,1,1],"metallicFactor":0,"roughnessFactor":1,"baseColorTexture":{"index":0,"texCoord":0}},"alphaMode":"OPAQUE"},{"pbrMetallicRoughness":{"baseColorFactor":[1,1,1,1],"metallicFactor":0,"roughnessFactor":1,"baseColorTexture":{"index":1,"texCoord":0}},"alphaMode":"OPAQUE"},{"pbrMetallicRoughness":{"baseColorFactor":[1,1,1,1],"metallicFactor":0,"roughnessFactor":1,"baseColorTexture":{"index":2,"texCoord":0}},"alphaMode":"OPAQUE"},{"pbrMetallicRoughness":{"baseColorFactor":[1,1,1,1],"metallicFactor":0,"roughnessFactor":1,"baseColorTexture":{"index":3,"texCoord":0}},"alphaMode":"OPAQUE"}],"textures":[{"source":0,"sampler":0},{"source":1,"sampler":0},{"source":2,"sampler":0},{"source":3,"sampler":0}],"images":[{"uri":"texture_1001.png"},{"uri":"texture_1002.png"},{"uri":"texture_1003.png"},{"uri":"texture_1004.png"}],"samplers":[{"magFilter":9729,"wrapS":10497,"wrapT":10497}],"accessors":[{"bufferView":0,"byteOffset":0,"count":552207,"componentType":5126,"type":"VEC3","min":[-0.61229658126831055,-1.2059239149093628,-0.37853264808654785],"max":[1.3543776273727417,0.63720452785491943,0.76432806253433228]},{"bufferView":0,"byteOffset":6626484,"count":473663,"componentType":5126,"type":"VEC3","min":[-0.61214601993560791,-1.1690503358840942,-0.318179190158844],"max":[1.3149392604827881,0.64571630954742432,0.75829607248306274]},{"bufferView":0,"byteOffset":12310440,"count":571409,"componentType":5126,"type":"VEC3","min":[-0.60919582843780518,-1.2035595178604126,-0.38040533661842346],"max":[1.346418023109436,0.64617329835891724,0.7649340033531189]},{"bufferView":0,"byteOffset":19167348,"count":52540,"componentType":5126,"type":"VEC3","min":[-0.610453724861145,-1.1995388269424438,-0.28956335783004761],"max":[1.2440848350524902,0.55940979719161987,0.75860267877578735]},{"bufferView":1,"byteOffset":0,"count":552207,"componentType":5126,"type":"VEC2"},{"bufferView":1,"byteOffset":4417656,"count":473663,"componentType":5126,"type":"VEC2"},{"bufferView":1,"byteOffset":8206960,"count":571409,"componentType":5126,"type":"VEC2"},{"bufferView":1,"byteOffset":12778232,"count":52540,"componentType":5126,"type":"VEC2"},{"bufferView":2,"byteOffset":0,"count":2863845,"componentType":5125,"type":"SCALAR"},{"bufferView":2,"byteOffset":11455380,"count":2622840,"componentType":5125,"type":"SCALAR"},{"bufferView":2,"byteOffset":21946740,"count":2980341,"componentType":5125,"type":"SCALAR"},{"bufferView":2,"byteOffset":33868104,"count":239967,"componentType":5125,"type":"SCALAR"}],"bufferViews":[{"buffer":0,"byteOffset":0,"byteLength":19797828,"byteStride":12,"target":34962},{"buffer":0,"byteOffset":19797828,"byteLength":13198552,"byteStride":8,"target":34962},{"buffer":0,"byteOffset":32996380,"byteLength":34827972,"target":34963}],"buffers":[{"byteLength":67824352,"uri":"observation.bin"}]}