{"asset":{"generator":"3D Builder","version":"2.0"},"scene":0,"scenes":[{"nodes":[0]}],"nodes":[{"mesh":0,"matrix":[1,0,0,0,0,0.99999862909317017,-2.9802285439473053E-7,0,0,7.9762855875742389E-7,0.99999755620956421,0,0.25523278117179871,-26.4138126373291,-0.017903896048665047,1]}],"meshes":[{"primitives":[{"attributes":{"POSITION":0,"TEXCOORD_0":2},"mode":4,"indices":3,"material":0},{"attributes":{"POSITION":1},"mode":4,"indices":4,"material":1}]}],"materials":[{"pbrMetallicRoughness":{"baseColorFactor":[1,1,1,1],"metallicFactor":0,"roughnessFactor":1,"baseColorTexture":{"index":0,"texCoord":0}},"alphaMode":"OPAQUE"},{"name":"FrontColor","pbrMetallicRoughness":{"baseColorFactor":[0.46207714080810547,0.095307208597660065,0.086500361561775208,1],"metallicFactor":0,"roughnessFactor":1},"alphaMode":"OPAQUE"}],"textures":[{"source":0,"sampler":0}],"images":[{"uri":"OobTerrain1.png"}],"samplers":[{"magFilter":9729,"wrapS":10497,"wrapT":10497}],"accessors":[{"bufferView":0,"byteOffset":0,"count":10201,"componentType":5126,"type":"VEC3","min":[-641.78399658203125,0,-638.52001953125],"max":[641.27301025390625,39.699199676513672,638.50299072265625]},{"bufferView":0,"byteOffset":122412,"count":1090,"componentType":5126,"type":"VEC3","min":[-499.989013671875,9.7316102981567383,-533.802001953125],"max":[493.00399780273437,52.827598571777344,514.57501220703125]},{"bufferView":1,"byteOffset":0,"count":10201,"componentType":5126,"type":"VEC2"},{"bufferView":2,"byteOffset":0,"count":60000,"componentType":5125,"type":"SCALAR"},{"bufferView":2,"byteOffset":240000,"count":5976,"componentType":5125,"type":"SCALAR"}],"bufferViews":[{"buffer":0,"byteOffset":0,"byteLength":135492,"byteStride":12,"target":34962},{"buffer":0,"byteOffset":135492,"byteLength":81608,"byteStride":8,"target":34962},{"buffer":0,"byteOffset":217100,"byteLength":263904,"target":34963}],"buffers":[{"byteLength":481004,"uri":"WoolseyFinnelBridgeTerrain.bin"}]}